<?xml version="1.0" encoding="utf-8"?>
<!-- Generator: Adobe Illustrator 16.0.0, SVG Export Plug-In . SVG Version: 6.00 Build 0)  -->
<!DOCTYPE svg PUBLIC "-//W3C//DTD SVG 1.1//EN" "http://www.w3.org/Graphics/SVG/1.1/DTD/svg11.dtd" [
	<!ENTITY ns_extend "http://ns.adobe.com/Extensibility/1.0/">
	<!ENTITY ns_ai "http://ns.adobe.com/AdobeIllustrator/10.0/">
	<!ENTITY ns_graphs "http://ns.adobe.com/Graphs/1.0/">
	<!ENTITY ns_vars "http://ns.adobe.com/Variables/1.0/">
	<!ENTITY ns_imrep "http://ns.adobe.com/ImageReplacement/1.0/">
	<!ENTITY ns_sfw "http://ns.adobe.com/SaveForWeb/1.0/">
	<!ENTITY ns_custom "http://ns.adobe.com/GenericCustomNamespace/1.0/">
	<!ENTITY ns_adobe_xpath "http://ns.adobe.com/XPath/1.0/">
]>
<svg version="1.1" id="Слой_1" xmlns:x="&ns_extend;" xmlns:i="&ns_ai;" xmlns:graph="&ns_graphs;"
	 xmlns="http://www.w3.org/2000/svg" xmlns:xlink="http://www.w3.org/1999/xlink" x="0px" y="0px" width="345px" height="247.5px"
	 viewBox="23 11.5 345 247.5" enable-background="new 23 11.5 345 247.5" xml:space="preserve">
<metadata>
	<sfw  xmlns="&ns_sfw;">
		<slices></slices>
		<sliceSourceBounds  width="341.882" height="245.927" bottomLeftOrigin="true" x="-94.264" y="-53"></sliceSourceBounds>
	</sfw>
</metadata>
<path fill="#F3CDB7" d="M62.408,259l23.385-36.878c2.145-3.382,2.823-7.267,2.232-10.933c1.771-2.749,3.028-4.721,3.028-4.721
	s1.596-2.467-0.709-4.275c-2.736-1.489-3.34,0.385-4.334,1.591c-0.223,0.271-0.436,0.552-0.643,0.839
	c-0.228-0.324-0.473-0.639-0.727-0.947c0.146-0.227,0.285-0.458,0.435-0.682c1.01-1.504,0.833-3.361-0.477-4.307
	c-1.512-1.09-3.103-0.734-4.256,0.976c-0.065,0.096-0.126,0.193-0.191,0.29c-0.408-0.228-0.821-0.436-1.24-0.624
	c0.175-0.277,0.359-0.549,0.528-0.83c0.837-1.396,0.468-2.839-0.848-3.733c-1.28-0.873-2.792-0.644-3.763,0.666
	c-0.286,0.384-0.982,1.385-1.765,2.536c-0.519-0.018-1.036-0.011-1.553,0.022c0.773-1.187,1.497-2.3,1.833-2.846
	c1.073-1.737,0.854-3.188-0.599-4.189c-1.486-1.025-3.062-0.669-4.256,1.025c-0.888,1.26-1.717,2.561-2.573,3.84
	c-0.322,0.492-2.012,3.09-4.141,6.358c-0.963,0.897-1.839,1.916-2.577,3.079l-32.513,51.271c-0.513,0.81-0.99,1.637-1.449,2.471
	H62.408z"/>
<rect x="135.6" y="229.443" fill="#F9E6DB" width="119.731" height="9.254"/>
<rect x="161.25" y="188.086" fill="#F9E6DB" width="68.428" height="43.396"/>
<rect x="161.25" y="187.105" fill="#F3CDB7" width="68.428" height="10.824"/>
<path fill="#E2814C" d="M68.434,34.73c0-11.96,9.695-21.657,21.657-21.657h210.751c11.959,0,21.656,9.696,21.656,21.657v123.31
	H68.434V34.73z"/>
<path fill="#F9E6DB" d="M322.5,157.921v10.323c0,11.96-9.695,21.656-21.654,21.656H90.091c-11.961,0-21.657-9.696-21.657-21.656
	v-10.323H322.5z"/>
<g>
	<path fill="#F3CDB7" d="M204.357,114.481H91.662c-1.94,0-3.514-1.574-3.514-3.514V41.605c0-1.941,1.574-3.516,3.514-3.516h112.695
		c1.94,0,3.514,1.574,3.514,3.516v69.362C207.871,112.908,206.298,114.481,204.357,114.481z"/>
	<path fill="#F3CDB7" d="M203.689,34.748H92.331c-2.311,0-4.183-1.872-4.183-4.182v-0.881c0-2.31,1.873-4.183,4.183-4.183h111.358
		c2.311,0,4.182,1.873,4.182,4.183v0.881C207.871,32.876,206,34.748,203.689,34.748z"/>
	<g>
		<circle fill="#DB621F" cx="93.692" cy="30.125" r="2.219"/>
		<circle fill="#DB621F" cx="100.51" cy="30.125" r="2.217"/>
		<circle fill="#DB621F" cx="107.328" cy="30.125" r="2.217"/>
	</g>
	<g>
		<path fill="#F3CDB7" d="M121.45,141.98H91.662c-1.94,0-3.514-1.574-3.514-3.517v-16.462c0-1.941,1.574-3.516,3.514-3.516h29.788
			c1.941,0,3.513,1.574,3.513,3.516v16.462C124.963,140.406,123.391,141.98,121.45,141.98z"/>
		<path fill="#F3CDB7" d="M162.911,141.98h-29.789c-1.94,0-3.513-1.574-3.513-3.517v-16.462c0-1.941,1.573-3.516,3.513-3.516h29.789
			c1.939,0,3.512,1.574,3.512,3.516v16.462C166.423,140.406,164.851,141.98,162.911,141.98z"/>
	</g>
	<g>
		<path fill="#E2814C" d="M124.169,68.828c0.031-1.61-0.037-3.265,0.125-4.896c0.136-1.372,1.438-2.48,2.837-2.509
			c2.621-0.053,5.243-0.006,7.865,0.002c0.038,0,0.078,0.06,0.042,0.031C131.451,63.888,127.841,66.336,124.169,68.828z"/>
		<path fill="#DB621F" d="M183.178,51.032c1.196,0.118,2.551,0.268,3.907,0.37c0.331,0.026,0.674-0.088,1.004-0.169
			c1.581-0.384,2.348-0.027,3.018,1.451c0.188,0.412,0.348,0.84,0.479,1.273c0.465,1.537,0.218,2.153-1.12,3.047
			c-0.21,0.141-0.362,0.41-0.475,0.651c-0.132,0.289-0.12,0.666-0.302,0.906c-0.687,0.922-0.447,1.891-0.304,2.901
			c1.125,7.912,2.232,15.827,3.323,23.744c0.107,0.789,0.134,1.605,0.072,2.401c-0.207,2.669-1.785,4.617-4.364,5.334
			c-1.024,0.284-2.093,0.456-3.152,0.545c-2.956,0.247-5.524,1.345-7.774,3.265c-0.347,0.295-0.895,0.497-1.348,0.497
			c-12.785-0.003-60.816,0.019-69.782,0c-2.066-0.003-3.097-1.658-2.281-3.549c2.655-6.147,6.459-11.541,10.872-16.53
			c4.188-4.735,8.953-8.828,14.184-12.356c7.856-5.297,16.444-8.961,25.643-11.198c7.097-1.727,14.306-2.546,21.599-2.649
			C176.809,50.96,181.438,50.897,183.178,51.032z M153.42,69.716c-0.29,0.251-0.815,0.67-1.3,1.129
			c-1.88,1.777-3.327,3.827-3.917,6.396c-0.264,1.139-0.252,1.273,0.902,1.278c9.471,0.037,18.936-0.078,28.406,0
			c0.941,0.009,1.449-0.277,1.708-1.127c0.015-0.052,0.056-0.093,0.072-0.145c1.597-4.707,3.188-9.418,4.791-14.125
			c0.191-0.567-0.135-0.557-0.521-0.546c-1.98,0.063-3.958,0.125-5.935,0.175c-0.814,0.021-3.799,0.296-4.165,0.354
			c-2.295,0.355-4.606,0.636-6.878,1.108C161.942,65.167,157.526,66.717,153.42,69.716z"/>
		<path fill="#E2814C" d="M175.838,75.474c0.632,0.713,0.616,1.715,0.547,2.705c-0.009,0.125-0.396,0.319-0.606,0.321
			c-3.396,0.015-6.792,0.002-10.187-0.003c-2.219-0.002-4.437-0.025-6.656,0.007c-0.572,0.008-0.704-0.176-0.707-0.718
			c-0.015-2.456,1.205-3.718,3.672-3.718c3.715-0.002,7.43,0.011,11.147,0.012C174.159,74.08,175.086,74.45,175.838,75.474z"/>
		<path fill="#E2814C" d="M180.137,99.529c-0.136-0.667-0.665-0.95-1.274-1.052c-0.392-0.066-0.806,0.003-1.195-0.073
			c-0.179-0.037-0.464-0.298-0.449-0.423c0.083-0.695-0.353-0.723-0.792-0.723c-0.042,0-69.484-0.002-69.699,0
			c-0.216,0.001-0.627,0.226-0.619,0.306c0.097,0.796-0.389,0.77-0.93,0.745c-0.48-0.021-0.966-0.032-1.444,0.017
			c-0.788,0.078-1.352,0.743-1.353,1.533c-0.003,0.974,0.569,1.532,1.804,1.533c1.062,0.004,66.131,0.009,73.059,0
			c0.696,0,1.418-0.205,2.075-0.458C179.888,100.713,180.28,100.214,180.137,99.529z"/>
	</g>
	<g>
		<path fill="#E2814C" d="M100.125,127.091c0.008-0.442-0.011-0.896,0.034-1.343c0.039-0.379,0.396-0.682,0.779-0.69
			c0.719-0.016,1.438-0.002,2.158,0c0.01,0,0.021,0.016,0.011,0.009C102.123,125.735,101.132,126.406,100.125,127.091z"/>
		<path fill="#DB621F" d="M116.322,122.205c0.329,0.031,0.7,0.074,1.072,0.102c0.09,0.007,0.185-0.024,0.275-0.046
			c0.435-0.104,0.646-0.009,0.83,0.397c0.051,0.113,0.095,0.23,0.131,0.351c0.127,0.422,0.06,0.59-0.307,0.836
			c-0.058,0.039-0.099,0.111-0.13,0.18c-0.037,0.078-0.033,0.182-0.083,0.249c-0.189,0.251-0.124,0.518-0.084,0.794
			c0.31,2.172,0.614,4.346,0.913,6.521c0.03,0.216,0.037,0.44,0.02,0.657c-0.056,0.732-0.49,1.268-1.197,1.467
			c-0.281,0.075-0.575,0.124-0.865,0.148c-0.812,0.066-1.517,0.367-2.135,0.895c-0.096,0.083-0.246,0.139-0.37,0.139
			c-3.511,0-16.693,0.004-19.153,0c-0.567,0-0.851-0.455-0.626-0.976c0.729-1.687,1.772-3.168,2.984-4.537
			c1.149-1.3,2.458-2.424,3.892-3.392c2.157-1.456,4.512-2.461,7.038-3.073c1.948-0.476,3.928-0.7,5.93-0.729
			C114.574,122.186,115.845,122.168,116.322,122.205z M108.152,127.336c-0.08,0.067-0.224,0.182-0.357,0.308
			c-0.515,0.489-0.914,1.053-1.076,1.757c-0.072,0.312-0.069,0.349,0.248,0.351c2.6,0.011,5.2-0.022,7.799,0
			c0.258,0.002,0.399-0.077,0.47-0.311c0.003-0.013,0.015-0.025,0.02-0.04c0.438-1.291,0.875-2.585,1.314-3.876
			c0.053-0.155-0.036-0.153-0.142-0.15c-0.543,0.017-1.086,0.035-1.629,0.049c-0.223,0.005-1.043,0.082-1.143,0.099
			c-0.631,0.096-1.266,0.173-1.89,0.304C110.491,126.087,109.279,126.513,108.152,127.336z"/>
		<path fill="#E2814C" d="M114.307,128.915c0.174,0.196,0.169,0.471,0.15,0.742c-0.002,0.034-0.109,0.088-0.167,0.088
			c-0.932,0.004-1.865,0-2.797,0c-0.609-0.001-1.218-0.009-1.828,0.001c-0.157,0.002-0.194-0.048-0.194-0.198
			c-0.003-0.671,0.33-1.018,1.008-1.018c1.02-0.002,2.04,0.002,3.062,0.002C113.846,128.532,114.1,128.633,114.307,128.915z"/>
		<path fill="#E2814C" d="M115.487,135.52c-0.037-0.186-0.182-0.262-0.349-0.291c-0.108-0.018-0.222,0.002-0.329-0.02
			c-0.049-0.01-0.127-0.082-0.124-0.116c0.023-0.19-0.097-0.198-0.217-0.198c-0.012,0-19.072,0-19.131,0
			c-0.06,0-0.173,0.062-0.17,0.084c0.027,0.221-0.106,0.211-0.255,0.205c-0.131-0.006-0.265-0.011-0.396,0.004
			c-0.217,0.021-0.371,0.205-0.372,0.422c0,0.268,0.156,0.42,0.495,0.42c0.291,0.002,18.15,0.002,20.053,0
			c0.191,0,0.389-0.055,0.57-0.123C115.419,135.844,115.526,135.708,115.487,135.52z"/>
	</g>
</g>
<path fill="#F3CDB7" d="M303.188,143.079h-82.504c-1.94,0-3.515-1.573-3.515-3.515V29.017c0-1.941,1.574-3.515,3.515-3.515h82.504
	c1.939,0,3.514,1.574,3.514,3.515v110.547C306.701,141.506,305.127,143.079,303.188,143.079z"/>
<path fill="#FFFFFF" d="M299.428,120.496c0,8.797-7.13,15.929-15.923,15.929h-44.31c-8.793,0-15.922-7.132-15.922-15.929l0,0
	c0-8.796,7.129-15.925,15.922-15.925h44.31C292.298,104.571,299.428,111.7,299.428,120.496L299.428,120.496z"/>
<g enable-background="new    ">
	<path fill="#DB621F" d="M243.656,122.88c-0.055,0.579-0.189,1.113-0.405,1.603c-0.217,0.489-0.517,0.913-0.901,1.27
		c-0.384,0.357-0.853,0.636-1.407,0.836c-0.554,0.2-1.194,0.3-1.919,0.3s-1.381-0.131-1.967-0.394
		c-0.588-0.262-1.088-0.636-1.502-1.119c-0.413-0.484-0.73-1.069-0.953-1.757c-0.221-0.687-0.332-1.457-0.332-2.312v-0.957
		c0-0.849,0.113-1.618,0.341-2.309c0.228-0.689,0.552-1.277,0.974-1.765c0.422-0.486,0.932-0.862,1.529-1.127
		c0.598-0.266,1.267-0.397,2.008-0.397c0.703,0,1.325,0.101,1.866,0.304c0.54,0.203,0.999,0.484,1.375,0.844
		c0.376,0.36,0.671,0.788,0.884,1.286c0.215,0.498,0.351,1.041,0.41,1.631h-2.045c-0.043-0.373-0.117-0.709-0.223-1.006
		c-0.105-0.298-0.256-0.551-0.45-0.759s-0.44-0.366-0.738-0.475s-0.657-0.162-1.079-0.162c-0.465,0-0.872,0.088-1.221,0.264
		c-0.35,0.176-0.641,0.43-0.873,0.763c-0.232,0.332-0.406,0.742-0.523,1.229c-0.115,0.487-0.174,1.042-0.174,1.663v0.974
		c0,0.59,0.051,1.125,0.154,1.606c0.103,0.481,0.262,0.895,0.479,1.237c0.217,0.344,0.495,0.61,0.836,0.8s0.749,0.283,1.225,0.283
		c0.443,0,0.818-0.051,1.124-0.154c0.306-0.103,0.559-0.254,0.759-0.454c0.199-0.2,0.355-0.446,0.467-0.738
		c0.11-0.292,0.189-0.627,0.238-1.006H243.656z"/>
	<path fill="#DB621F" d="M250.545,126.726c-0.055-0.103-0.1-0.225-0.135-0.365s-0.066-0.292-0.093-0.454
		c-0.13,0.135-0.274,0.263-0.435,0.381c-0.159,0.119-0.335,0.224-0.527,0.312c-0.191,0.09-0.4,0.16-0.625,0.211
		c-0.225,0.052-0.463,0.077-0.717,0.077c-0.439,0-0.842-0.066-1.209-0.198c-0.369-0.133-0.684-0.316-0.945-0.552
		c-0.263-0.235-0.469-0.513-0.617-0.832s-0.223-0.665-0.223-1.038c0-0.471,0.089-0.888,0.268-1.25
		c0.178-0.362,0.438-0.665,0.779-0.908c0.34-0.243,0.758-0.429,1.253-0.556s1.059-0.191,1.691-0.191h1.241v-0.575
		c0-0.455-0.127-0.818-0.381-1.092c-0.254-0.272-0.641-0.409-1.16-0.409c-0.232,0-0.443,0.031-0.633,0.093
		c-0.189,0.062-0.351,0.146-0.482,0.252c-0.133,0.105-0.236,0.231-0.309,0.377c-0.073,0.146-0.109,0.303-0.109,0.471h-1.972
		c0-0.346,0.085-0.681,0.255-1.002c0.171-0.322,0.413-0.608,0.727-0.86c0.313-0.251,0.693-0.453,1.141-0.604
		c0.445-0.151,0.944-0.227,1.496-0.227c0.492,0,0.947,0.063,1.363,0.19s0.775,0.316,1.079,0.567
		c0.303,0.252,0.538,0.565,0.706,0.941c0.167,0.376,0.251,0.815,0.251,1.318v3.895c0,0.79,0.11,1.42,0.333,1.891v0.138H250.545z
		 M248.378,125.306c0.228,0,0.439-0.029,0.638-0.089c0.197-0.06,0.375-0.139,0.535-0.235c0.159-0.098,0.299-0.21,0.418-0.337
		s0.213-0.256,0.283-0.386v-1.654h-1.062c-0.73,0-1.279,0.127-1.646,0.381c-0.368,0.254-0.553,0.614-0.553,1.079
		c0,0.179,0.03,0.344,0.09,0.495s0.148,0.282,0.268,0.394c0.119,0.11,0.264,0.197,0.434,0.26
		C247.952,125.274,248.15,125.306,248.378,125.306z"/>
	<path fill="#DB621F" d="M256.387,126.726h-1.973v-12.462h1.973V126.726z"/>
	<path fill="#DB621F" d="M260.629,126.726h-1.971v-12.462h1.971V126.726z"/>
	<path fill="#DB621F" d="M268.767,117.947l0.058,0.917c0.291-0.341,0.646-0.606,1.066-0.796c0.419-0.188,0.907-0.283,1.465-0.283
		c0.535,0,1.014,0.106,1.436,0.32s0.746,0.556,0.974,1.026c0.292-0.411,0.661-0.738,1.107-0.981
		c0.446-0.244,0.975-0.365,1.586-0.365c0.454,0,0.86,0.061,1.218,0.183c0.356,0.121,0.658,0.313,0.904,0.575
		c0.246,0.263,0.436,0.6,0.567,1.011c0.133,0.411,0.198,0.906,0.198,1.484v5.688h-1.971v-5.695c0-0.324-0.037-0.591-0.109-0.799
		c-0.073-0.209-0.179-0.375-0.316-0.499c-0.139-0.125-0.303-0.211-0.495-0.26s-0.409-0.073-0.653-0.073
		c-0.449,0-0.815,0.12-1.1,0.361c-0.283,0.24-0.482,0.556-0.596,0.945c0,0.026,0.001,0.055,0.004,0.085
		c0.002,0.029,0.004,0.058,0.004,0.085v5.85h-1.971v-5.671c0-0.309-0.037-0.568-0.11-0.779s-0.179-0.381-0.316-0.511
		s-0.304-0.224-0.499-0.28c-0.194-0.057-0.414-0.085-0.657-0.085c-0.422,0-0.769,0.087-1.042,0.26s-0.486,0.408-0.637,0.706v6.36
		h-1.973v-8.778H268.767z"/>
	<path fill="#DB621F" d="M285.236,126.888c-0.648,0-1.233-0.108-1.752-0.324c-0.52-0.217-0.961-0.514-1.322-0.893
		c-0.363-0.379-0.642-0.827-0.836-1.347c-0.195-0.52-0.293-1.079-0.293-1.68v-0.324c0-0.692,0.104-1.318,0.309-1.878
		c0.205-0.561,0.486-1.036,0.844-1.429c0.357-0.392,0.777-0.694,1.262-0.908s1.005-0.32,1.562-0.32c0.638,0,1.191,0.106,1.662,0.32
		s0.86,0.513,1.169,0.896c0.308,0.384,0.538,0.841,0.689,1.371s0.228,1.111,0.228,1.744v0.844h-5.736
		c0.027,0.341,0.099,0.654,0.215,0.941c0.116,0.286,0.274,0.534,0.475,0.742s0.438,0.372,0.71,0.491s0.583,0.178,0.929,0.178
		c0.487,0,0.91-0.097,1.27-0.292c0.36-0.194,0.672-0.462,0.938-0.803l1.062,1.014c-0.141,0.211-0.314,0.415-0.523,0.613
		c-0.207,0.197-0.451,0.373-0.729,0.527c-0.278,0.153-0.594,0.278-0.945,0.373S285.674,126.888,285.236,126.888z M285.001,119.367
		c-0.541,0-0.978,0.189-1.31,0.567c-0.333,0.379-0.545,0.906-0.638,1.582h3.757v-0.146c-0.017-0.26-0.059-0.51-0.126-0.751
		c-0.067-0.24-0.172-0.454-0.312-0.641s-0.323-0.335-0.548-0.446C285.6,119.423,285.326,119.367,285.001,119.367z"/>
</g>
<polygon id="arrow_4_" fill="#DB621F" points="286.182,136.876 270.216,129.684 277.404,145.654 280.348,142.708 287.736,150.098 
	290.628,147.209 283.24,139.816 "/>
<g enable-background="new    ">
	<path fill="#DB621F" d="M225.514,84.398h1.227c0.357,0,0.666-0.047,0.928-0.141c0.261-0.094,0.479-0.223,0.655-0.388
		c0.176-0.164,0.307-0.363,0.392-0.596s0.128-0.491,0.128-0.774c0-0.591-0.155-1.049-0.464-1.375
		c-0.31-0.326-0.782-0.489-1.418-0.489c-0.271,0-0.524,0.041-0.758,0.123c-0.232,0.082-0.434,0.199-0.604,0.35
		s-0.304,0.332-0.4,0.544c-0.097,0.213-0.145,0.453-0.145,0.72h-2.068c0-0.488,0.098-0.939,0.293-1.354
		c0.196-0.414,0.469-0.773,0.817-1.077c0.349-0.303,0.767-0.54,1.251-0.71c0.486-0.171,1.015-0.256,1.588-0.256
		c0.59,0,1.129,0.075,1.617,0.226s0.907,0.373,1.256,0.668c0.35,0.295,0.62,0.663,0.812,1.103c0.193,0.44,0.29,0.949,0.29,1.528
		c0,0.25-0.04,0.502-0.119,0.758c-0.079,0.255-0.198,0.5-0.357,0.736c-0.159,0.235-0.357,0.456-0.597,0.663
		c-0.238,0.208-0.516,0.382-0.834,0.524c0.381,0.13,0.703,0.296,0.967,0.497c0.264,0.202,0.479,0.429,0.643,0.682
		c0.164,0.252,0.285,0.523,0.361,0.812c0.077,0.29,0.115,0.588,0.115,0.895c0,0.578-0.105,1.095-0.314,1.549
		c-0.211,0.454-0.502,0.836-0.873,1.145c-0.371,0.31-0.812,0.545-1.319,0.707s-1.058,0.242-1.647,0.242
		c-0.539,0-1.055-0.073-1.545-0.221s-0.924-0.367-1.298-0.66c-0.374-0.292-0.673-0.656-0.894-1.094
		c-0.222-0.437-0.332-0.942-0.332-1.516h2.068c0,0.272,0.048,0.522,0.145,0.75c0.096,0.227,0.232,0.421,0.408,0.583
		c0.176,0.161,0.389,0.286,0.639,0.374s0.527,0.132,0.834,0.132c0.642,0,1.146-0.17,1.516-0.511c0.369-0.34,0.553-0.834,0.553-1.48
		c0-0.353-0.053-0.656-0.161-0.911c-0.108-0.256-0.261-0.467-0.46-0.635c-0.198-0.167-0.438-0.29-0.719-0.37
		c-0.281-0.079-0.598-0.119-0.949-0.119h-1.227V84.398z"/>
	<path fill="#DB621F" d="M241.279,80.295l-4.954,11.245h-2.171l4.945-10.734h-6.409v-1.66h8.589V80.295z"/>
	<path fill="#DB621F" d="M251.273,91.54h-8.334v-1.422l4.035-4.4c0.34-0.375,0.622-0.708,0.846-1.001
		c0.225-0.292,0.404-0.559,0.537-0.8s0.227-0.467,0.281-0.677c0.053-0.21,0.08-0.42,0.08-0.63c0-0.283-0.041-0.546-0.123-0.787
		s-0.201-0.45-0.357-0.626s-0.348-0.313-0.574-0.413c-0.228-0.099-0.488-0.148-0.783-0.148c-0.357,0-0.669,0.057-0.933,0.17
		s-0.482,0.271-0.655,0.473c-0.174,0.201-0.304,0.442-0.392,0.724c-0.089,0.28-0.132,0.589-0.132,0.924h-2.068
		c0-0.545,0.092-1.058,0.276-1.537s0.455-0.897,0.813-1.256c0.357-0.357,0.797-0.64,1.318-0.847
		c0.522-0.207,1.118-0.311,1.788-0.311c0.618,0,1.169,0.081,1.651,0.242c0.482,0.162,0.89,0.391,1.222,0.686
		s0.585,0.654,0.757,1.077c0.174,0.423,0.26,0.893,0.26,1.408c0,0.387-0.062,0.768-0.187,1.146c-0.125,0.377-0.298,0.753-0.52,1.128
		c-0.222,0.374-0.485,0.75-0.792,1.128c-0.307,0.377-0.641,0.756-1.004,1.136l-2.767,2.963h5.755V91.54z"/>
	<path fill="#DB621F" d="M263.616,79.086v1.711h-0.146c-0.675,0-1.258,0.094-1.748,0.281c-0.492,0.188-0.902,0.442-1.234,0.767
		c-0.332,0.323-0.59,0.702-0.771,1.136c-0.182,0.435-0.301,0.896-0.357,1.384c0.318-0.335,0.693-0.591,1.124-0.767
		s0.905-0.264,1.421-0.264c0.602,0,1.125,0.115,1.571,0.345c0.445,0.229,0.813,0.538,1.103,0.924s0.505,0.828,0.646,1.328
		c0.143,0.499,0.213,1.016,0.213,1.549c0,0.596-0.09,1.15-0.268,1.664c-0.18,0.514-0.44,0.961-0.783,1.341
		c-0.344,0.381-0.766,0.68-1.265,0.898c-0.499,0.218-1.067,0.327-1.702,0.327c-0.676,0-1.271-0.132-1.787-0.396
		c-0.518-0.264-0.953-0.62-1.307-1.068c-0.355-0.448-0.623-0.965-0.805-1.549c-0.182-0.585-0.273-1.2-0.273-1.848v-0.809
		c0-0.613,0.047-1.21,0.141-1.792s0.243-1.129,0.447-1.643c0.205-0.514,0.469-0.986,0.792-1.418
		c0.323-0.431,0.712-0.803,1.166-1.115c0.454-0.312,0.978-0.554,1.57-0.728c0.593-0.173,1.265-0.26,2.013-0.26H263.616z
		 M261.395,85.002c-0.238,0-0.467,0.037-0.686,0.111c-0.219,0.073-0.417,0.173-0.596,0.298s-0.335,0.272-0.469,0.442
		c-0.133,0.171-0.239,0.353-0.318,0.545v0.639c0,0.493,0.055,0.929,0.166,1.307c0.11,0.377,0.26,0.69,0.446,0.94
		c0.188,0.25,0.405,0.438,0.655,0.566c0.25,0.127,0.517,0.191,0.801,0.191c0.312,0,0.592-0.062,0.838-0.184
		c0.247-0.121,0.457-0.293,0.631-0.515c0.172-0.222,0.305-0.485,0.395-0.792c0.092-0.306,0.137-0.644,0.137-1.013
		c0-0.346-0.043-0.673-0.127-0.979c-0.086-0.307-0.212-0.575-0.379-0.805c-0.168-0.229-0.377-0.413-0.626-0.549
		C262.013,85.07,261.723,85.002,261.395,85.002z"/>
	<path fill="#DB621F" d="M269.48,84.398h1.227c0.357,0,0.666-0.047,0.928-0.141c0.261-0.094,0.479-0.223,0.655-0.388
		c0.176-0.164,0.307-0.363,0.392-0.596s0.128-0.491,0.128-0.774c0-0.591-0.155-1.049-0.464-1.375
		c-0.31-0.326-0.782-0.489-1.418-0.489c-0.271,0-0.524,0.041-0.758,0.123c-0.232,0.082-0.434,0.199-0.604,0.35
		s-0.304,0.332-0.4,0.544c-0.097,0.213-0.145,0.453-0.145,0.72h-2.068c0-0.488,0.098-0.939,0.293-1.354
		c0.196-0.414,0.469-0.773,0.817-1.077c0.349-0.303,0.767-0.54,1.251-0.71c0.486-0.171,1.015-0.256,1.588-0.256
		c0.59,0,1.129,0.075,1.617,0.226s0.907,0.373,1.256,0.668c0.35,0.295,0.62,0.663,0.812,1.103c0.193,0.44,0.29,0.949,0.29,1.528
		c0,0.25-0.04,0.502-0.119,0.758c-0.079,0.255-0.198,0.5-0.357,0.736c-0.159,0.235-0.357,0.456-0.597,0.663
		c-0.238,0.208-0.516,0.382-0.834,0.524c0.381,0.13,0.703,0.296,0.967,0.497c0.264,0.202,0.479,0.429,0.643,0.682
		c0.164,0.252,0.285,0.523,0.361,0.812c0.077,0.29,0.115,0.588,0.115,0.895c0,0.578-0.105,1.095-0.314,1.549
		c-0.211,0.454-0.502,0.836-0.873,1.145c-0.371,0.31-0.812,0.545-1.319,0.707s-1.058,0.242-1.647,0.242
		c-0.539,0-1.055-0.073-1.545-0.221s-0.924-0.367-1.298-0.66c-0.374-0.292-0.673-0.656-0.894-1.094
		c-0.222-0.437-0.332-0.942-0.332-1.516h2.068c0,0.272,0.048,0.522,0.145,0.75c0.096,0.227,0.232,0.421,0.408,0.583
		c0.176,0.161,0.389,0.286,0.639,0.374s0.527,0.132,0.834,0.132c0.642,0,1.146-0.17,1.516-0.511c0.369-0.34,0.553-0.834,0.553-1.48
		c0-0.353-0.053-0.656-0.161-0.911c-0.108-0.256-0.261-0.467-0.46-0.635c-0.198-0.167-0.438-0.29-0.719-0.37
		c-0.281-0.079-0.598-0.119-0.949-0.119h-1.227V84.398z"/>
	<path fill="#DB621F" d="M283.995,87.122h1.54v1.66h-1.54v2.758h-2.069v-2.758h-5.354l-0.06-1.26l5.346-8.377h2.137V87.122z
		 M278.684,87.122h3.242v-5.176l-0.152,0.272L278.684,87.122z"/>
	<path fill="#DB621F" d="M293.223,93.839h-1.422V79.146h1.422V93.839z"/>
</g>
<g enable-background="new    ">
	<path fill="#DB621F" d="M228.762,43.158h-4.178v3.417h4.854v1.039h-6.124v-9.64h6.058v1.046h-4.787v3.099h4.178V43.158z"/>
	<path fill="#DB621F" d="M231.986,40.45l0.04,0.9c0.256-0.322,0.565-0.574,0.927-0.758c0.361-0.183,0.768-0.274,1.219-0.274
		c0.348,0,0.664,0.047,0.946,0.142c0.282,0.096,0.522,0.248,0.722,0.457c0.199,0.21,0.352,0.479,0.46,0.808
		c0.108,0.329,0.162,0.728,0.162,1.195v4.694h-1.225v-4.707c0-0.278-0.03-0.516-0.093-0.712s-0.153-0.356-0.275-0.48
		c-0.121-0.123-0.271-0.214-0.449-0.271c-0.18-0.057-0.385-0.086-0.619-0.086c-0.397,0-0.746,0.106-1.047,0.318
		c-0.3,0.212-0.533,0.489-0.701,0.834v5.104h-1.225V40.45H231.986z"/>
	<path fill="#DB621F" d="M239.971,38.716v1.734h1.338v0.947h-1.338v4.442c0,0.186,0.022,0.334,0.066,0.447
		c0.045,0.112,0.104,0.199,0.176,0.261c0.072,0.062,0.156,0.104,0.252,0.123c0.094,0.02,0.192,0.029,0.294,0.029
		s0.208-0.01,0.321-0.029c0.112-0.02,0.199-0.036,0.262-0.05v0.993c-0.098,0.026-0.223,0.055-0.377,0.086
		c-0.155,0.031-0.343,0.047-0.563,0.047c-0.226,0-0.438-0.032-0.639-0.097c-0.201-0.063-0.376-0.171-0.526-0.321
		c-0.15-0.149-0.27-0.347-0.357-0.592s-0.133-0.547-0.133-0.904v-4.436h-1.305V40.45h1.305v-1.734H239.971z"/>
	<path fill="#DB621F" d="M245.712,47.747c-0.499,0-0.95-0.087-1.354-0.259s-0.749-0.411-1.035-0.718
		c-0.287-0.308-0.508-0.673-0.662-1.096c-0.155-0.424-0.232-0.888-0.232-1.391v-0.278c0-0.583,0.087-1.104,0.262-1.562
		c0.174-0.459,0.407-0.845,0.698-1.158c0.292-0.313,0.624-0.554,1-0.719c0.375-0.166,0.766-0.248,1.172-0.248
		c0.512,0,0.953,0.089,1.324,0.268c0.37,0.179,0.677,0.425,0.917,0.738s0.418,0.685,0.533,1.112
		c0.114,0.429,0.172,0.895,0.172,1.397v0.549h-4.854c0.01,0.331,0.062,0.641,0.162,0.928s0.24,0.536,0.424,0.748
		s0.404,0.38,0.662,0.503c0.258,0.124,0.551,0.186,0.877,0.186c0.434,0,0.799-0.089,1.1-0.265c0.301-0.177,0.562-0.411,0.788-0.702
		l0.748,0.583c-0.114,0.176-0.254,0.348-0.417,0.513c-0.164,0.166-0.354,0.313-0.572,0.443c-0.219,0.131-0.47,0.234-0.752,0.312
		C246.389,47.708,246.069,47.747,245.712,47.747z M245.56,41.324c-0.247,0-0.475,0.046-0.683,0.136
		c-0.207,0.091-0.393,0.222-0.556,0.395c-0.163,0.172-0.299,0.386-0.407,0.642c-0.107,0.256-0.182,0.55-0.222,0.881h3.589v-0.093
		c-0.014-0.238-0.053-0.475-0.116-0.708c-0.063-0.234-0.163-0.444-0.298-0.629c-0.135-0.186-0.309-0.336-0.52-0.45
		C246.135,41.382,245.873,41.324,245.56,41.324z"/>
	<path fill="#DB621F" d="M253.385,41.55c-0.105-0.018-0.203-0.03-0.294-0.037c-0.091-0.006-0.193-0.01-0.308-0.01
		c-0.424,0-0.77,0.093-1.037,0.278c-0.267,0.186-0.467,0.435-0.599,0.748v5.085h-1.226V40.45h1.192l0.021,0.828
		c0.185-0.296,0.416-0.53,0.694-0.702s0.616-0.258,1.013-0.258c0.089,0,0.19,0.01,0.305,0.029c0.115,0.021,0.194,0.041,0.238,0.063
		V41.55z"/>
	<path fill="#DB621F" d="M260.211,45.82l1.668-5.37h1.312l-2.88,8.27c-0.066,0.177-0.152,0.369-0.258,0.576
		c-0.106,0.207-0.244,0.4-0.414,0.579s-0.375,0.329-0.613,0.45c-0.238,0.122-0.518,0.183-0.84,0.183
		c-0.049,0-0.106-0.005-0.172-0.014c-0.066-0.009-0.133-0.019-0.199-0.029c-0.066-0.012-0.128-0.022-0.186-0.033
		c-0.057-0.012-0.102-0.021-0.133-0.03v-0.993c0.018,0.005,0.043,0.008,0.073,0.01c0.03,0.003,0.063,0.005,0.097,0.007
		s0.063,0.005,0.092,0.007c0.029,0.002,0.053,0.003,0.07,0.003c0.207,0,0.391-0.02,0.549-0.06c0.159-0.039,0.301-0.104,0.424-0.195
		c0.123-0.09,0.23-0.21,0.321-0.36s0.173-0.336,0.248-0.557l0.271-0.728l-2.556-7.085h1.338L260.211,45.82z"/>
	<path fill="#DB621F" d="M263.859,43.966c0-0.521,0.076-1.003,0.229-1.446s0.368-0.829,0.648-1.155
		c0.28-0.327,0.621-0.583,1.023-0.769c0.401-0.185,0.852-0.277,1.351-0.277c0.507,0,0.964,0.093,1.367,0.277
		c0.403,0.186,0.747,0.441,1.029,0.769c0.282,0.326,0.499,0.712,0.649,1.155c0.149,0.443,0.225,0.926,0.225,1.446v0.146
		c0,0.521-0.075,1.003-0.225,1.446c-0.15,0.443-0.367,0.827-0.649,1.152c-0.282,0.324-0.624,0.578-1.026,0.761
		c-0.401,0.184-0.854,0.275-1.357,0.275c-0.503,0-0.955-0.092-1.357-0.275c-0.401-0.183-0.743-0.437-1.025-0.761
		c-0.283-0.325-0.5-0.709-0.652-1.152s-0.229-0.926-0.229-1.446V43.966z M265.091,44.112c0,0.357,0.042,0.694,0.126,1.013
		c0.084,0.317,0.211,0.597,0.381,0.837c0.17,0.241,0.381,0.432,0.635,0.573s0.551,0.212,0.891,0.212c0.336,0,0.631-0.07,0.888-0.212
		c0.256-0.142,0.468-0.332,0.636-0.573c0.168-0.24,0.295-0.52,0.381-0.837c0.086-0.318,0.129-0.655,0.129-1.013v-0.146
		c0-0.353-0.043-0.689-0.129-1.01c-0.086-0.319-0.215-0.6-0.385-0.841c-0.17-0.24-0.383-0.432-0.639-0.575s-0.554-0.216-0.894-0.216
		c-0.335,0-0.63,0.072-0.881,0.216s-0.462,0.335-0.632,0.575c-0.17,0.241-0.297,0.521-0.381,0.841
		c-0.084,0.32-0.126,0.657-0.126,1.01V44.112z"/>
	<path fill="#DB621F" d="M276.34,46.906c-0.226,0.265-0.51,0.471-0.854,0.618c-0.345,0.148-0.759,0.223-1.245,0.223
		c-0.354,0-0.673-0.05-0.959-0.149c-0.287-0.1-0.535-0.256-0.742-0.47s-0.367-0.49-0.48-0.828c-0.112-0.338-0.168-0.745-0.168-1.222
		V40.45h1.225v4.642c0,0.322,0.037,0.588,0.112,0.798s0.175,0.375,0.298,0.496c0.123,0.122,0.266,0.206,0.424,0.252
		c0.159,0.046,0.322,0.069,0.49,0.069c0.498,0,0.898-0.095,1.201-0.284c0.303-0.19,0.524-0.444,0.666-0.762V40.45h1.225v7.164
		h-1.166L276.34,46.906z"/>
	<path fill="#DB621F" d="M282.854,41.55c-0.106-0.018-0.204-0.03-0.294-0.037c-0.092-0.006-0.193-0.01-0.309-0.01
		c-0.424,0-0.77,0.093-1.036,0.278s-0.467,0.435-0.599,0.748v5.085h-1.226V40.45h1.192l0.02,0.828
		c0.186-0.296,0.417-0.53,0.695-0.702c0.277-0.172,0.615-0.258,1.013-0.258c0.089,0,0.19,0.01,0.305,0.029
		c0.114,0.021,0.194,0.041,0.238,0.063V41.55z"/>
</g>
<g enable-background="new    ">
	<path fill="#DB621F" d="M224.279,56.722l0.041,0.9c0.256-0.322,0.564-0.574,0.926-0.758c0.362-0.183,0.769-0.274,1.219-0.274
		c0.349,0,0.664,0.047,0.947,0.142c0.281,0.096,0.522,0.248,0.721,0.457c0.199,0.21,0.353,0.479,0.461,0.808
		c0.107,0.329,0.162,0.728,0.162,1.195v4.694h-1.225v-4.707c0-0.278-0.031-0.516-0.094-0.712c-0.062-0.196-0.152-0.356-0.274-0.48
		c-0.121-0.123-0.271-0.214-0.45-0.271c-0.179-0.057-0.385-0.086-0.619-0.086c-0.396,0-0.746,0.106-1.046,0.318
		s-0.534,0.489-0.702,0.834v5.104h-1.225v-7.164H224.279z"/>
	<path fill="#DB621F" d="M235.025,63.178c-0.225,0.265-0.51,0.471-0.854,0.618c-0.345,0.148-0.76,0.223-1.245,0.223
		c-0.354,0-0.673-0.05-0.96-0.149s-0.534-0.256-0.742-0.47c-0.207-0.214-0.367-0.49-0.479-0.828s-0.169-0.745-0.169-1.222v-4.628
		h1.225v4.642c0,0.322,0.037,0.588,0.113,0.798c0.074,0.21,0.174,0.375,0.297,0.496c0.124,0.122,0.266,0.206,0.424,0.252
		c0.16,0.046,0.322,0.069,0.49,0.069c0.499,0,0.899-0.095,1.202-0.284c0.302-0.19,0.524-0.444,0.665-0.762v-5.211h1.225v7.164
		h-1.165L235.025,63.178z"/>
	<path fill="#DB621F" d="M239.23,56.722l0.032,0.795c0.247-0.291,0.546-0.519,0.897-0.682c0.351-0.164,0.76-0.245,1.229-0.245
		c0.463,0,0.873,0.092,1.228,0.274c0.355,0.184,0.628,0.476,0.817,0.877c0.238-0.344,0.549-0.622,0.931-0.834
		s0.833-0.317,1.354-0.317c0.383,0,0.723,0.05,1.02,0.148c0.295,0.1,0.546,0.255,0.751,0.467c0.206,0.212,0.36,0.481,0.467,0.808
		c0.106,0.327,0.159,0.716,0.159,1.166v4.707h-1.225v-4.714c0-0.3-0.037-0.55-0.109-0.748c-0.073-0.199-0.176-0.357-0.309-0.477
		c-0.132-0.119-0.293-0.202-0.482-0.249c-0.19-0.046-0.4-0.069-0.629-0.069c-0.252,0-0.475,0.04-0.67,0.119
		c-0.193,0.08-0.36,0.187-0.499,0.321c-0.14,0.135-0.249,0.294-0.331,0.477c-0.082,0.184-0.134,0.379-0.156,0.586v4.754h-1.23
		v-4.707c0-0.278-0.037-0.516-0.109-0.712c-0.073-0.196-0.176-0.356-0.309-0.48c-0.133-0.123-0.292-0.214-0.479-0.271
		c-0.188-0.057-0.398-0.086-0.632-0.086c-0.438,0-0.789,0.095-1.053,0.285c-0.266,0.189-0.465,0.437-0.597,0.741v5.23h-1.225v-7.164
		H239.23z"/>
	<path fill="#DB621F" d="M256.027,60.384c0,0.524-0.062,1.009-0.186,1.453c-0.124,0.443-0.305,0.827-0.543,1.151
		c-0.238,0.325-0.529,0.577-0.875,0.759c-0.344,0.181-0.736,0.271-1.178,0.271c-0.473,0-0.881-0.083-1.225-0.249
		c-0.345-0.165-0.636-0.402-0.875-0.711l-0.059,0.827h-1.126v-10.17h1.226v3.794c0.238-0.296,0.524-0.522,0.86-0.682
		c0.335-0.159,0.73-0.238,1.185-0.238c0.451,0,0.849,0.088,1.195,0.265s0.638,0.425,0.874,0.745c0.236,0.319,0.416,0.704,0.54,1.151
		c0.123,0.448,0.186,0.946,0.186,1.493V60.384z M254.802,60.244c0-0.357-0.032-0.694-0.099-1.01s-0.174-0.593-0.322-0.831
		c-0.147-0.238-0.34-0.427-0.578-0.565c-0.238-0.14-0.53-0.209-0.875-0.209c-0.225,0-0.428,0.029-0.608,0.086
		c-0.181,0.058-0.343,0.137-0.487,0.238c-0.143,0.102-0.268,0.221-0.373,0.357c-0.106,0.138-0.197,0.285-0.271,0.444v3.099
		c0.079,0.158,0.173,0.307,0.281,0.443c0.107,0.137,0.233,0.256,0.377,0.357s0.306,0.181,0.486,0.238
		c0.182,0.058,0.385,0.086,0.609,0.086c0.331,0,0.613-0.068,0.848-0.205s0.426-0.322,0.576-0.556c0.15-0.234,0.26-0.509,0.33-0.825
		c0.071-0.315,0.106-0.651,0.106-1.009V60.244z"/>
	<path fill="#DB621F" d="M260.543,64.019c-0.5,0-0.951-0.087-1.354-0.259c-0.404-0.172-0.749-0.411-1.036-0.718
		c-0.287-0.308-0.508-0.673-0.662-1.096c-0.154-0.424-0.232-0.888-0.232-1.391v-0.278c0-0.583,0.088-1.104,0.262-1.562
		c0.175-0.459,0.408-0.845,0.699-1.158s0.624-0.554,1-0.719c0.375-0.166,0.766-0.248,1.172-0.248c0.512,0,0.953,0.089,1.324,0.268
		c0.37,0.179,0.676,0.425,0.916,0.738s0.418,0.685,0.533,1.112c0.115,0.429,0.172,0.895,0.172,1.397v0.549h-4.853
		c0.009,0.331,0.062,0.641,0.162,0.928c0.099,0.287,0.24,0.536,0.424,0.748c0.183,0.212,0.403,0.38,0.662,0.503
		c0.258,0.124,0.55,0.186,0.877,0.186c0.433,0,0.799-0.089,1.099-0.265c0.301-0.177,0.563-0.411,0.789-0.702l0.748,0.583
		c-0.115,0.176-0.254,0.348-0.418,0.513c-0.163,0.166-0.354,0.313-0.572,0.443c-0.219,0.131-0.469,0.234-0.752,0.312
		C261.22,63.979,260.9,64.019,260.543,64.019z M260.391,57.596c-0.248,0-0.475,0.046-0.683,0.136
		c-0.208,0.091-0.394,0.222-0.556,0.395c-0.164,0.172-0.299,0.386-0.408,0.642c-0.107,0.256-0.182,0.55-0.221,0.881h3.588v-0.093
		c-0.014-0.238-0.052-0.475-0.115-0.708c-0.064-0.234-0.164-0.444-0.299-0.629c-0.135-0.186-0.308-0.336-0.52-0.45
		C260.966,57.653,260.703,57.596,260.391,57.596z"/>
	<path fill="#DB621F" d="M268.216,57.821c-0.106-0.018-0.204-0.03-0.294-0.037c-0.092-0.006-0.193-0.01-0.309-0.01
		c-0.424,0-0.77,0.093-1.036,0.278s-0.467,0.435-0.599,0.748v5.085h-1.226v-7.164h1.192l0.02,0.828
		c0.186-0.296,0.417-0.53,0.695-0.702c0.277-0.172,0.615-0.258,1.013-0.258c0.089,0,0.19,0.01,0.305,0.029
		c0.114,0.021,0.194,0.041,0.238,0.063V57.821z"/>
	<path fill="#DB621F" d="M269.302,63.243c0-0.212,0.063-0.388,0.188-0.529c0.126-0.142,0.314-0.212,0.566-0.212
		s0.442,0.07,0.572,0.212c0.131,0.142,0.195,0.317,0.195,0.529c0,0.203-0.064,0.373-0.195,0.51c-0.13,0.137-0.32,0.206-0.572,0.206
		s-0.44-0.069-0.566-0.206C269.365,63.616,269.302,63.446,269.302,63.243z M269.309,57.397c0-0.212,0.062-0.389,0.188-0.53
		c0.126-0.141,0.314-0.211,0.565-0.211c0.252,0,0.443,0.07,0.573,0.211c0.13,0.142,0.195,0.318,0.195,0.53
		c0,0.203-0.065,0.373-0.195,0.51s-0.321,0.205-0.573,0.205c-0.251,0-0.439-0.068-0.565-0.205S269.309,57.601,269.309,57.397z"/>
</g>
<path id="mouse_5_" fill="#F9E6DB" d="M367.118,247.878h-40.802v-0.894c0-10.774,8.73-19.508,19.507-19.508h1.787
	c10.772,0,19.508,8.732,19.508,19.508V247.878L367.118,247.878z"/>
<rect x="159.861" y="186.634" fill="#F3CDB7" width="34.494" height="32.771"/>
<path fill="#DB621F" d="M208.997,175.35c0,18.051-14.631,32.683-32.678,32.683l0,0c-18.046,0-32.677-14.632-32.677-32.683v-18.432
	c0-18.049,14.631-32.68,32.677-32.68l0,0c18.047,0,32.678,14.631,32.678,32.68V175.35L208.997,175.35z"/>
<path fill="#DB621F" d="M221.387,139.516c-1.453-18.884-11.332-25.375-25.494-30.095c-7.46-1.687-13.939-2.194-19.575-1.84
	c-5.634-0.354-12.112,0.153-19.572,1.84c-14.162,4.72-24.041,11.211-25.492,30.095c-1.772,23.014,14.87,48.914,14.87,48.914
	c11.334-17.481,12.396-34.146,11.944-42.896c5.702,0.553,12.091,0.767,18.25,0.121c6.162,0.646,12.551,0.432,18.253-0.121
	c-0.451,8.749,0.611,25.414,11.945,42.896C206.516,188.43,223.158,162.529,221.387,139.516z"/>
<ellipse fill="#E2814C" cx="176.548" cy="141.801" rx="14.679" ry="13.076"/>
<circle fill="#E2814C" cx="59.851" cy="231.424" r="17.849"/>
<path fill="#FFFFFF" d="M70.66,221.229c-2.759-2.773-6.525-4.365-10.534-4.365c-1.877,0-3.722,0.355-5.45,1.042l6.332,9.653
	L70.66,221.229z"/>
<polygon fill="#F3CDB7" points="114.7,259 92.804,240.629 79.681,259 "/>
<polygon fill="#F3CDB7" points="273.021,259 259.898,240.629 238.002,259 "/>
<path fill="#E2814C" d="M118.418,259l4.587-6.284c2.001-2.737,6.307-1.776,6.947,1.558l0.491,4.727h91.818l0.491-4.727
	c0.639-3.334,4.945-4.295,6.945-1.558l4.587,6.284h3.72l21.895-18.37l-3.849-5.387c-7.481-10.474-19.552-16.782-32.399-16.997
	v-0.021h-0.678h-28.484h-0.001h-1.608h-33.057h-1.604h-0.003H129.73h-0.678v0.021c-12.847,0.215-24.919,6.523-32.399,16.997
	l-3.849,5.387L114.698,259H118.418z"/>
<path fill="#F3CDB7" d="M348.339,259l0.128-0.089c7.138-4.968,8.898-14.779,3.928-21.918c-0.847-1.216-1.842-2.263-2.934-3.16
	l4.193-2.308c2.195-1.248,2.962-4.041,1.712-6.241c-1.249-2.195-4.046-2.964-6.24-1.712l-12.665,6.969
	c-2.088,0.405-4.128,1.232-5.985,2.525L293.221,259H348.339z"/>
<path fill="#DB621F" d="M196.037,259l-5.154-109.35c0-7.918-6.419-14.336-14.335-14.336c-7.917,0-14.333,6.418-14.333,14.336
	L157.061,259H196.037z"/>
</svg>
